<svg width="24" height="24" viewBox="0 0 24 24" fill="none" xmlns="http://www.w3.org/2000/svg">
<path d="M16.8 9.66667L16.128 16.1984C16.0264 17.1886 15.976 17.6832 15.744 18.0573C15.5405 18.3866 15.2413 18.65 14.884 18.8141C14.4784 19 13.968 19 12.944 19H11.056C10.0328 19 9.5216 19 9.116 18.8133C8.75844 18.6493 8.45889 18.386 8.2552 18.0566C8.0248 17.6832 7.9736 17.1886 7.8712 16.1984L7.2 9.66667M13.2 14.7222V10.8333M10.8 14.7222V10.8333M6 7.72222H9.692M9.692 7.72222L10.0008 5.644C10.0904 5.266 10.4136 5 10.7848 5H13.2152C13.5864 5 13.9088 5.266 13.9992 5.644L14.308 7.72222M9.692 7.72222H14.308M14.308 7.72222H18" stroke="#2B2D33" stroke-opacity="0.7" stroke-width="1.2" stroke-linecap="round" stroke-linejoin="round"/>
</svg>
