<svg width="24" height="25" viewBox="0 0 24 25" fill="none" xmlns="http://www.w3.org/2000/svg">
<path d="M4 12.0514C4 9.0539 4 7.55477 4.93159 6.62397C5.86238 5.69238 7.36151 5.69238 10.359 5.69238H13.5385C16.5359 5.69238 18.0351 5.69238 18.9658 6.62397C19.8974 7.55477 19.8974 9.0539 19.8974 12.0514V13.6411C19.8974 16.6386 19.8974 18.1377 18.9658 19.0685C18.0351 20.0001 16.5359 20.0001 13.5385 20.0001H10.359C7.36151 20.0001 5.86238 20.0001 4.93159 19.0685C4 18.1377 4 16.6386 4 13.6411V12.0514Z" stroke="#2B2D33" stroke-width="1.5"/>
<path opacity="0.5" d="M7.97341 5.69231V4.5M15.9221 5.69231V4.5M4.39648 9.66667H19.499" stroke="#2B2D33" stroke-width="1.5" stroke-linecap="round"/>
<path d="M16.7181 16.0261C16.7181 16.2369 16.6344 16.4391 16.4853 16.5882C16.3363 16.7372 16.1341 16.821 15.9233 16.821C15.7125 16.821 15.5103 16.7372 15.3612 16.5882C15.2122 16.4391 15.1284 16.2369 15.1284 16.0261C15.1284 15.8153 15.2122 15.6131 15.3612 15.4641C15.5103 15.315 15.7125 15.2312 15.9233 15.2312C16.1341 15.2312 16.3363 15.315 16.4853 15.4641C16.6344 15.6131 16.7181 15.8153 16.7181 16.0261ZM16.7181 12.8466C16.7181 13.0574 16.6344 13.2596 16.4853 13.4087C16.3363 13.5578 16.1341 13.6415 15.9233 13.6415C15.7125 13.6415 15.5103 13.5578 15.3612 13.4087C15.2122 13.2596 15.1284 13.0574 15.1284 12.8466C15.1284 12.6358 15.2122 12.4336 15.3612 12.2846C15.5103 12.1355 15.7125 12.0518 15.9233 12.0518C16.1341 12.0518 16.3363 12.1355 16.4853 12.2846C16.6344 12.4336 16.7181 12.6358 16.7181 12.8466ZM12.7438 16.0261C12.7438 16.2369 12.66 16.4391 12.511 16.5882C12.3619 16.7372 12.1597 16.821 11.9489 16.821C11.7381 16.821 11.5359 16.7372 11.3869 16.5882C11.2378 16.4391 11.154 16.2369 11.154 16.0261C11.154 15.8153 11.2378 15.6131 11.3869 15.4641C11.5359 15.315 11.7381 15.2312 11.9489 15.2312C12.1597 15.2312 12.3619 15.315 12.511 15.4641C12.66 15.6131 12.7438 15.8153 12.7438 16.0261ZM12.7438 12.8466C12.7438 13.0574 12.66 13.2596 12.511 13.4087C12.3619 13.5578 12.1597 13.6415 11.9489 13.6415C11.7381 13.6415 11.5359 13.5578 11.3869 13.4087C11.2378 13.2596 11.154 13.0574 11.154 12.8466C11.154 12.6358 11.2378 12.4336 11.3869 12.2846C11.5359 12.1355 11.7381 12.0518 11.9489 12.0518C12.1597 12.0518 12.3619 12.1355 12.511 12.2846C12.66 12.4336 12.7438 12.6358 12.7438 12.8466ZM8.76943 16.0261C8.76943 16.2369 8.68569 16.4391 8.53662 16.5882C8.38755 16.7372 8.18537 16.821 7.97456 16.821C7.76375 16.821 7.56157 16.7372 7.4125 16.5882C7.26343 16.4391 7.17969 16.2369 7.17969 16.0261C7.17969 15.8153 7.26343 15.6131 7.4125 15.4641C7.56157 15.315 7.76375 15.2312 7.97456 15.2312C8.18537 15.2312 8.38755 15.315 8.53662 15.4641C8.68569 15.6131 8.76943 15.8153 8.76943 16.0261ZM8.76943 12.8466C8.76943 13.0574 8.68569 13.2596 8.53662 13.4087C8.38755 13.5578 8.18537 13.6415 7.97456 13.6415C7.76375 13.6415 7.56157 13.5578 7.4125 13.4087C7.26343 13.2596 7.17969 13.0574 7.17969 12.8466C7.17969 12.6358 7.26343 12.4336 7.4125 12.2846C7.56157 12.1355 7.76375 12.0518 7.97456 12.0518C8.18537 12.0518 8.38755 12.1355 8.53662 12.2846C8.68569 12.4336 8.76943 12.6358 8.76943 12.8466Z" fill="#2B2D33"/>
</svg>
