<svg width="24" height="24" viewBox="0 0 24 24" fill="none" xmlns="http://www.w3.org/2000/svg">
<path fill-rule="evenodd" clip-rule="evenodd" d="M13.2004 3.6001H12.0004C10.9361 3.60024 9.9021 3.95389 9.06065 4.60549C8.21921 5.2571 7.61805 6.16975 7.35159 7.2001H7.20039C5.92735 7.2001 4.70645 7.70581 3.80628 8.60599C2.9061 9.50616 2.40039 10.7271 2.40039 12.0001C2.40039 13.2731 2.9061 14.494 3.80628 15.3942C4.70645 16.2944 5.92735 16.8001 7.20039 16.8001H16.8004C17.9806 16.8018 19.1202 16.3686 20.0012 15.5833C20.8823 14.798 21.4431 13.7156 21.5766 12.5429C21.7101 11.3702 21.4068 10.1895 20.7247 9.22624C20.0427 8.26301 19.0296 7.58484 17.8792 7.3213C17.6348 6.26349 17.0391 5.31971 16.1894 4.64391C15.3397 3.96811 14.2861 3.60017 13.2004 3.6001ZM8.28159 8.4001L8.51319 7.5001C8.71315 6.72729 9.16414 6.04279 9.79532 5.55409C10.4265 5.06539 11.2021 4.80017 12.0004 4.8001H13.2004C14.8864 4.8001 16.3372 5.9701 16.7092 7.5901L16.8772 8.3221L17.6092 8.4913C18.4697 8.6914 19.2265 9.2008 19.7359 9.9226C20.2452 10.6444 20.4715 11.5282 20.3716 12.406C20.2718 13.2838 19.8527 14.0942 19.1943 14.6831C18.5358 15.2721 17.6838 15.5984 16.8004 15.6001H7.20039C6.24561 15.6001 5.32994 15.2208 4.65481 14.5457C3.97968 13.8706 3.60039 12.9549 3.60039 12.0001C3.60039 11.0453 3.97968 10.1296 4.65481 9.45451C5.32994 8.77938 6.24561 8.4001 7.20039 8.4001H8.28159Z" fill="#2B2D33"/>
<path d="M13.2 19.8002C13.2 19.9593 13.1368 20.1119 13.0243 20.2245C12.9117 20.337 12.7591 20.4002 12.6 20.4002C12.4409 20.4002 12.2883 20.337 12.1757 20.2245C12.0632 20.1119 12 19.9593 12 19.8002V10.8002C12 10.6411 12.0632 10.4885 12.1757 10.3759C12.2883 10.2634 12.4409 10.2002 12.6 10.2002C12.7591 10.2002 12.9117 10.2634 13.0243 10.3759C13.1368 10.4885 13.2 10.6411 13.2 10.8002V19.8002Z" fill="#2B2D33"/>
<path d="M9.97477 13.6681C9.84992 13.7587 9.695 13.7977 9.54216 13.777C9.38931 13.7564 9.25029 13.6777 9.15394 13.5572C9.05759 13.4368 9.01132 13.2839 9.02474 13.1302C9.03815 12.9766 9.11021 12.834 9.22597 12.7321L12.226 10.3321C12.3508 10.2415 12.5057 10.2025 12.6586 10.2232C12.8114 10.2438 12.9504 10.3225 13.0468 10.443C13.1431 10.5634 13.1894 10.7163 13.176 10.87C13.1626 11.0236 13.0905 11.1662 12.9748 11.2681L9.97477 13.6681Z" fill="#2B2D33"/>
<path d="M15.975 12.7323C16.0908 12.8342 16.1628 12.9768 16.1762 13.1304C16.1897 13.2841 16.1434 13.437 16.047 13.5574C15.9507 13.6779 15.8117 13.7566 15.6588 13.7772C15.506 13.7979 15.3511 13.7589 15.2262 13.6683L12.2262 11.2683C12.1605 11.2206 12.1051 11.1601 12.0635 11.0904C12.0219 11.0208 11.9948 10.9434 11.9839 10.8629C11.973 10.7825 11.9786 10.7007 12.0003 10.6224C12.022 10.5442 12.0593 10.4712 12.11 10.4078C12.1607 10.3444 12.2237 10.292 12.2953 10.2537C12.3669 10.2153 12.4455 10.1919 12.5263 10.1849C12.6072 10.1778 12.6887 10.1873 12.7658 10.2126C12.8429 10.2379 12.9141 10.2787 12.975 10.3323L15.975 12.7323Z" fill="#2B2D33"/>
</svg>
