<svg width="24" height="24" viewBox="0 0 24 24" fill="none" xmlns="http://www.w3.org/2000/svg">
<path d="M9.51025 18.377C9.11204 18.7755 8.57195 18.9996 8.00864 19H5V16.0102C5 15.4471 5.22396 14.9065 5.6221 14.5083M9.51025 18.377L5.6221 14.5083M9.51025 18.377L17.2663 10.6163M5.6221 14.5083L13.3859 6.73441L14.4948 5.62374C14.6922 5.42608 14.9265 5.26925 15.1845 5.16222C15.4424 5.0552 15.719 5.00007 15.9982 5C16.2775 4.99993 16.5541 5.05491 16.8121 5.1618C17.0701 5.2687 17.3045 5.4254 17.5019 5.62297L18.3775 6.49952C18.7761 6.89816 19 7.43883 19 8.00258C19 8.56634 18.7761 9.107 18.3775 9.50564L17.2663 10.6163M17.2663 10.6163L13.3852 6.73441" stroke="#2B2D33" stroke-opacity="0.7" stroke-width="1.5" stroke-linecap="round" stroke-linejoin="round"/>
</svg>
