<svg width="24" height="24" viewBox="0 0 24 24" fill="none" xmlns="http://www.w3.org/2000/svg">
<path d="M12.5 5.00392C10.8452 4.94958 9.23272 5.462 8.0148 6.42924C6.79688 7.39647 6.07254 8.7399 6 10.166C6 15.1778 10.5116 18.7963 12.0116 19.8488C12.1491 19.9465 12.3218 20 12.5 20C12.6782 20 12.8509 19.9465 12.9884 19.8488C14.4884 18.7963 19 15.2079 19 10.166C18.9275 8.7399 18.2031 7.39647 16.9852 6.42924C15.7673 5.462 14.1548 4.94958 12.5 5.00392ZM12.5 18.5156C11.4195 17.6972 10.4589 16.7682 9.63953 15.7491C8.26857 14.1233 7.50592 12.1755 7.45349 10.166C7.52559 9.07212 8.09664 8.04718 9.04206 7.31483C9.98748 6.58248 11.2305 6.20216 12.5 6.25686C13.7695 6.20216 15.0125 6.58248 15.9579 7.31483C16.9034 8.04718 17.4744 9.07212 17.5465 10.166C17.5465 14.2556 14.1047 17.3429 12.5 18.5156Z" fill="#2B2D33"/>
<path d="M12.0035 8.00171C11.7488 7.99062 11.4946 8.03368 11.2556 8.12841C11.0166 8.22313 10.7976 8.36763 10.6112 8.55352C10.4249 8.73941 10.2749 8.963 10.1699 9.21133C10.065 9.45966 10.0073 9.72778 10 10.0001C10.0082 10.2722 10.0666 10.5398 10.1718 10.7877C10.2771 11.0356 10.4271 11.2588 10.6133 11.4445C10.7994 11.6302 11.0181 11.7747 11.2567 11.8698C11.4953 11.9649 11.7491 12.0087 12.0035 11.9986C12.5158 12.0149 13.0132 11.8139 13.3873 11.4394C13.7613 11.065 13.9816 10.5476 14 10.0001C13.9918 9.72875 13.9336 9.46174 13.8288 9.21439C13.724 8.96703 13.5747 8.74419 13.3892 8.55858C13.2038 8.37298 12.986 8.22827 12.7482 8.13272C12.5105 8.03716 12.2574 7.99265 12.0035 8.00171ZM12.0035 11.0559C11.7258 11.0724 11.4533 10.9705 11.2457 10.7726C11.0381 10.5748 10.9123 10.297 10.8959 10.0001C10.9123 9.70332 11.0381 9.42553 11.2457 9.22764C11.4533 9.02975 11.7258 8.92789 12.0035 8.94437C12.282 8.92783 12.5553 9.02947 12.764 9.22717C12.9727 9.42488 13.1 9.70267 13.1182 10.0001C13.1 10.2976 12.9727 10.5754 12.764 10.7731C12.5553 10.9708 12.282 11.0725 12.0035 11.0559Z" fill="#2B2D33"/>
</svg>
