<svg width="152" height="40" viewBox="0 0 152 40" fill="none" xmlns="http://www.w3.org/2000/svg">
<g clip-path="url(#clip0_1181_44678)">
<path d="M87.616 38.2299C90.5071 38.2299 92.8763 36.8646 94.5627 34.3349L94.884 37.7079H100.586V1.72949H94.4423V14.7395C92.9164 12.4106 90.5875 11.1658 87.8971 11.1658C81.9542 11.1658 77.7782 16.1851 77.7782 24.8986C77.7782 33.4515 81.8338 38.2299 87.616 38.2299ZM125.522 35.9812V30.9619C123.594 32.2469 120.382 33.4113 117.37 33.4113C112.873 33.4113 111.147 31.2832 110.906 26.9465H125.763V23.6538C125.763 14.5789 121.787 11.1658 115.604 11.1658C108.095 11.1658 104.521 16.9079 104.521 24.7781C104.521 33.853 108.978 38.2299 116.848 38.2299C120.784 38.2299 123.675 37.226 125.522 35.9812ZM59.1465 19.0361C60.311 17.6306 62.0778 16.4662 64.3265 16.4662C66.4948 16.4662 67.4585 17.3897 67.4585 19.3573V37.748H73.6021V18.7148C73.6021 13.5349 71.5543 11.2461 66.4948 11.2461C62.8407 11.2461 60.6322 12.6113 59.3875 13.816H59.0662L58.9056 11.6476H52.8824V37.7079H59.0261L59.1465 19.0361ZM47.9434 19.9596C47.9434 13.6554 44.7311 11.2461 38.1859 11.2461C34.1303 11.2461 30.8778 12.9727 29.0307 14.2978V19.6384C30.9983 18.0322 34.0099 16.1851 37.4631 16.1851C40.3944 16.1851 41.7597 17.2291 41.7597 20.0399V21.6862H40.7959C31.3597 21.6862 27.1836 24.738 27.1836 30.199C27.1836 35.2183 30.3959 38.1094 35.1743 38.1094C38.7882 38.1094 40.3543 36.9048 41.5589 35.66H41.7998C41.84 36.3426 42.0407 37.1859 42.2415 37.7079H48.2647C48.0639 35.5797 47.9434 33.4515 47.9434 31.3233V19.9596ZM144.435 37.748H151.381L142.869 24.3364L150.217 11.7279H144.073L139.616 19.5982L134.637 11.7279H127.65L135.52 24.216L127.329 37.7882H133.593L138.813 28.9944L144.435 37.748ZM89.4631 16.0245C92.796 16.0245 94.4423 18.6747 94.4423 24.6577C94.4423 30.721 92.6755 33.3712 89.2222 33.3712C85.8492 33.3712 84.2029 30.8013 84.2029 24.8584C84.1627 18.7148 85.9295 16.0245 89.4631 16.0245ZM115.523 16.0245C118.575 16.0245 119.499 18.5542 119.499 21.8067V22.3287H110.906C111.026 18.1928 112.552 16.0245 115.523 16.0245ZM41.7998 31.5241C41.0369 32.6886 39.5512 33.572 37.3828 33.572C34.8129 33.572 33.4878 32.0862 33.4878 29.7974C33.4878 26.7859 35.616 25.7418 40.8763 25.7418H41.7597L41.7998 31.5241Z" fill="black"/>
<path d="M18.0695 31.6044V37.7079H11.8054V27.4283L0 1.72949H6.54517L15.7405 21.8067C17.5073 25.6615 18.0695 26.9866 18.0695 31.6044ZM29.8348 1.72949L22.1653 19.1164H15.7807L23.4903 1.72949H29.8348Z" fill="#FC3F1D"/>
</g>
<defs>
<clipPath id="clip0_1181_44678">
<rect width="151.784" height="36.5405" fill="white" transform="translate(0 1.72949)"/>
</clipPath>
</defs>
</svg>
