<svg width="24" height="25" viewBox="0 0 24 25" fill="none" xmlns="http://www.w3.org/2000/svg">
<path d="M12.5 5.50392C10.8452 5.44958 9.23272 5.962 8.0148 6.92924C6.79688 7.89647 6.07254 9.2399 6 10.666C6 15.6778 10.5116 19.2963 12.0116 20.3488C12.1491 20.4465 12.3218 20.5 12.5 20.5C12.6782 20.5 12.8509 20.4465 12.9884 20.3488C14.4884 19.2963 19 15.7079 19 10.666C18.9275 9.2399 18.2031 7.89647 16.9852 6.92924C15.7673 5.962 14.1548 5.44958 12.5 5.50392ZM12.5 19.0156C11.4195 18.1972 10.4589 17.2682 9.63953 16.2491C8.26857 14.6233 7.50592 12.6755 7.45349 10.666C7.52559 9.57212 8.09664 8.54718 9.04206 7.81483C9.98748 7.08248 11.2305 6.70216 12.5 6.75686C13.7695 6.70216 15.0125 7.08248 15.9579 7.81483C16.9034 8.54718 17.4744 9.57212 17.5465 10.666C17.5465 14.7556 14.1047 17.8429 12.5 19.0156Z" fill="#2B2D33"/>
<path d="M12.0035 8.50171C11.7488 8.49062 11.4946 8.53368 11.2556 8.62841C11.0166 8.72313 10.7976 8.86763 10.6112 9.05352C10.4249 9.23941 10.2749 9.463 10.1699 9.71133C10.065 9.95966 10.0073 10.2278 10 10.5001C10.0082 10.7722 10.0666 11.0398 10.1718 11.2877C10.2771 11.5356 10.4271 11.7588 10.6133 11.9445C10.7994 12.1302 11.0181 12.2747 11.2567 12.3698C11.4953 12.4649 11.7491 12.5087 12.0035 12.4986C12.5158 12.5149 13.0132 12.3139 13.3873 11.9394C13.7613 11.565 13.9816 11.0476 14 10.5001C13.9918 10.2287 13.9336 9.96174 13.8288 9.71439C13.724 9.46703 13.5747 9.24419 13.3892 9.05858C13.2038 8.87298 12.986 8.72827 12.7482 8.63272C12.5105 8.53716 12.2574 8.49265 12.0035 8.50171ZM12.0035 11.5559C11.7258 11.5724 11.4533 11.4705 11.2457 11.2726C11.0381 11.0748 10.9123 10.797 10.8959 10.5001C10.9123 10.2033 11.0381 9.92553 11.2457 9.72764C11.4533 9.52975 11.7258 9.42789 12.0035 9.44437C12.282 9.42783 12.5553 9.52947 12.764 9.72717C12.9727 9.92488 13.1 10.2027 13.1182 10.5001C13.1 10.7976 12.9727 11.0754 12.764 11.2731C12.5553 11.4708 12.282 11.5725 12.0035 11.5559Z" fill="#2B2D33"/>
</svg>
