<svg width="24" height="24" viewBox="0 0 24 24" fill="none" xmlns="http://www.w3.org/2000/svg">
<path d="M18.3278 10.9025L8.14848 5.18949C7.93501 5.07008 7.69083 5.00478 7.44086 5.00025C7.1909 4.99572 6.9441 5.05213 6.72565 5.16372C6.50721 5.2753 6.32494 5.43807 6.19746 5.63541C6.06997 5.83274 6.00184 6.05758 6 6.28698V17.713C6.00184 17.9424 6.06997 18.1673 6.19746 18.3646C6.32494 18.5619 6.50721 18.7247 6.72565 18.8363C6.9441 18.9479 7.1909 19.0043 7.44086 18.9997C7.69083 18.9952 7.93501 18.9299 8.14848 18.8105L18.3278 13.0975C18.5331 12.9828 18.7027 12.8217 18.8204 12.6295C18.9382 12.4373 19 12.2205 19 12C19 11.7795 18.9382 11.5627 18.8204 11.3705C18.7027 11.1783 18.5331 11.0172 18.3278 10.9025ZM7.69561 17.2411V6.7589L17.0328 12L7.69561 17.2411Z" fill="#2B2D33"/>
</svg>
