<svg width="24" height="24" viewBox="0 0 24 24" fill="none" xmlns="http://www.w3.org/2000/svg">
<path d="M6 6L18 20M6.66667 9.11111H8.66667M11.3333 9.11111H17.3333M10.6667 12.2222V16.8889M13.3333 14.5556V16.8889M7.33333 9.11111L8 18.4444C8 18.857 8.14048 19.2527 8.39052 19.5444C8.64057 19.8361 8.97971 20 9.33333 20H14.6667C15.0203 20 15.3594 19.8361 15.6095 19.5444C15.8595 19.2527 16 18.857 16 18.4444L16.0513 17.7266M16.256 14.8457L16.6667 9.11111M10 7.55556V6.77778C10 6.5715 10.0702 6.37367 10.1953 6.22781C10.3203 6.08194 10.4899 6 10.6667 6H13.3333C13.5101 6 13.6797 6.08194 13.8047 6.22781C13.9298 6.37367 14 6.5715 14 6.77778V9.11111" stroke="#231D1D" stroke-width="1.2" stroke-linecap="round" stroke-linejoin="round"/>
</svg>
