<svg width="414" height="48" viewBox="0 0 414 48" fill="none" xmlns="http://www.w3.org/2000/svg">
<g clip-path="url(#clip0_1181_44682)">
<rect width="414" height="48" rx="12" fill="white"/>
<path d="M33.4828 28.4221C33.1899 28.1292 32.715 28.1292 32.4221 28.4221C32.1292 28.715 32.1292 29.1899 32.4221 29.4828L33.4828 28.4221ZM35.4697 32.5303C35.7626 32.8232 36.2374 32.8232 36.5303 32.5303C36.8232 32.2374 36.8232 31.7626 36.5303 31.4697L35.4697 32.5303ZM25.6166 19.0734C26.0257 19.0086 26.3048 18.6244 26.24 18.2153C26.1753 17.8062 25.7911 17.527 25.382 17.5918L25.6166 19.0734ZM21.5918 21.382C21.527 21.7911 21.8062 22.1753 22.2153 22.2401C22.6244 22.3048 23.0086 22.0257 23.0734 21.6166L21.5918 21.382ZM32.4221 29.4828L35.4697 32.5303L36.5303 31.4697L33.4828 28.4221L32.4221 29.4828ZM26.8572 28.9643C23.4843 28.9643 20.75 26.23 20.75 22.8571H19.25C19.25 27.0584 22.6558 30.4643 26.8572 30.4643V28.9643ZM32.9643 22.8571C32.9643 26.23 30.23 28.9643 26.8572 28.9643V30.4643C31.0585 30.4643 34.4643 27.0584 34.4643 22.8571H32.9643ZM26.8572 16.75C30.23 16.75 32.9643 19.4843 32.9643 22.8571H34.4643C34.4643 18.6558 31.0585 15.25 26.8572 15.25V16.75ZM26.8572 15.25C22.6558 15.25 19.25 18.6558 19.25 22.8571H20.75C20.75 19.4843 23.4843 16.75 26.8572 16.75V15.25ZM25.382 17.5918C23.431 17.9008 21.9008 19.431 21.5918 21.382L23.0734 21.6166C23.2807 20.3075 24.3075 19.2807 25.6166 19.0734L25.382 17.5918Z" fill="#2B2D33"/>
<path d="M63.462 19.666H58.576V28.5H57.246V18.476H64.792V28.5H63.462V19.666ZM70.0815 28.64C69.5868 28.64 69.1248 28.556 68.6955 28.388C68.2662 28.22 67.8928 27.9773 67.5755 27.66C67.2675 27.3333 67.0248 26.9367 66.8475 26.47C66.6702 26.0033 66.5815 25.4667 66.5815 24.86C66.5815 24.2627 66.6702 23.7307 66.8475 23.264C67.0248 22.788 67.2675 22.3913 67.5755 22.074C67.8928 21.7567 68.2662 21.514 68.6955 21.346C69.1248 21.178 69.5868 21.094 70.0815 21.094C70.5855 21.094 71.0522 21.178 71.4815 21.346C71.9108 21.514 72.2795 21.7567 72.5875 22.074C72.9048 22.3913 73.1522 22.788 73.3295 23.264C73.5162 23.7307 73.6095 24.2627 73.6095 24.86C73.6095 25.4667 73.5162 26.0033 73.3295 26.47C73.1522 26.9367 72.9048 27.3333 72.5875 27.66C72.2795 27.9773 71.9108 28.22 71.4815 28.388C71.0522 28.556 70.5855 28.64 70.0815 28.64ZM70.0815 27.534C70.4082 27.534 70.7115 27.4827 70.9915 27.38C71.2715 27.268 71.5095 27.1047 71.7055 26.89C71.9108 26.666 72.0695 26.386 72.1815 26.05C72.3028 25.714 72.3635 25.3173 72.3635 24.86C72.3635 24.4027 72.3028 24.006 72.1815 23.67C72.0695 23.334 71.9108 23.0587 71.7055 22.844C71.5095 22.62 71.2715 22.4567 70.9915 22.354C70.7115 22.242 70.4082 22.186 70.0815 22.186C69.7548 22.186 69.4562 22.242 69.1855 22.354C68.9148 22.4567 68.6768 22.62 68.4715 22.844C68.2755 23.0587 68.1215 23.334 68.0095 23.67C67.8975 24.006 67.8415 24.4027 67.8415 24.86C67.8415 25.3173 67.8975 25.714 68.0095 26.05C68.1215 26.386 68.2755 26.666 68.4715 26.89C68.6768 27.1047 68.9148 27.268 69.1855 27.38C69.4562 27.4827 69.7548 27.534 70.0815 27.534ZM75.2479 21.234H76.4799V26.82L80.3579 21.234H81.6039V28.5H80.3719V22.928L76.5079 28.5H75.2479V21.234ZM86.8875 28.64C86.3555 28.64 85.8655 28.556 85.4175 28.388C84.9695 28.22 84.5822 27.9773 84.2555 27.66C83.9382 27.3333 83.6908 26.9413 83.5135 26.484C83.3362 26.0173 83.2475 25.4853 83.2475 24.888C83.2475 24.3 83.3362 23.7727 83.5135 23.306C83.7002 22.83 83.9568 22.4287 84.2835 22.102C84.6102 21.7753 84.9928 21.528 85.4315 21.36C85.8795 21.1827 86.3648 21.094 86.8875 21.094C87.3262 21.094 87.7322 21.1407 88.1055 21.234C88.4882 21.3273 88.8055 21.4673 89.0575 21.654L88.7495 22.718C88.5162 22.5873 88.2502 22.466 87.9515 22.354C87.6528 22.242 87.3028 22.186 86.9015 22.186C86.1735 22.186 85.5902 22.41 85.1515 22.858C84.7222 23.306 84.5075 23.9827 84.5075 24.888C84.5075 25.7373 84.7222 26.3907 85.1515 26.848C85.5808 27.3053 86.1595 27.534 86.8875 27.534C87.2422 27.534 87.5642 27.4873 87.8535 27.394C88.1428 27.3007 88.4182 27.1793 88.6795 27.03L88.9735 28.052C88.7122 28.2387 88.4135 28.3833 88.0775 28.486C87.7415 28.5887 87.3448 28.64 86.8875 28.64ZM92.5458 25.406H91.9018V28.5H90.6698V21.234H91.9018V24.356H92.6018L95.1498 21.234H96.5498L93.5678 24.818L96.6058 28.5H95.1078L92.5458 25.406Z" fill="#49454F"/>
</g>
<defs>
<clipPath id="clip0_1181_44682">
<rect width="414" height="48" rx="12" fill="white"/>
</clipPath>
</defs>
</svg>
