<svg width="28" height="28" viewBox="0 0 28 28" fill="none" xmlns="http://www.w3.org/2000/svg">
<path d="M14 28C21.732 28 28 21.732 28 14C28 6.26803 21.732 0 14 0C6.26803 0 0 6.26803 0 14C0 21.732 6.26803 28 14 28Z" fill="url(#paint0_linear_825_40517)"/>
<path d="M5.21427 14.6844C6.85086 13.7829 8.67775 13.0305 10.3847 12.2743C13.3213 11.0356 16.2696 9.81846 19.2476 8.68528C19.8271 8.49219 20.8681 8.30337 20.9702 9.16203C20.9143 10.3775 20.6844 11.5858 20.5266 12.7941C20.1263 15.4513 19.6636 18.0994 19.2124 20.7478C19.0569 21.63 17.9518 22.0867 17.2447 21.5222C15.5453 20.3743 13.8329 19.2376 12.1552 18.0631C11.6057 17.5047 12.1153 16.7028 12.6061 16.304C14.0057 14.9247 15.4901 13.7528 16.8166 12.3021C17.1744 11.438 16.1172 12.1663 15.7685 12.3894C13.8523 13.7098 11.9831 15.1109 9.96289 16.2713C8.93097 16.8394 7.72825 16.354 6.6968 16.037C5.77198 15.6541 4.41676 15.2683 5.21418 14.6845L5.21427 14.6844Z" fill="white"/>
<defs>
<linearGradient id="paint0_linear_825_40517" x1="10.5016" y1="1.1676" x2="3.50163" y2="17.5" gradientUnits="userSpaceOnUse">
<stop stop-color="#37AEE2"/>
<stop offset="1" stop-color="#1E96C8"/>
</linearGradient>
</defs>
</svg>
