<svg width="28" height="28" viewBox="0 0 28 28" fill="none" xmlns="http://www.w3.org/2000/svg">
<path fill-rule="evenodd" clip-rule="evenodd" d="M9.70218 0H18.2978C26.1426 0 28 1.85744 28 9.70217V18.2978C28 26.1425 26.1426 28 18.2978 28H9.70218C1.85744 28 0 26.1425 0 18.2978V9.70217C0 1.85744 1.85744 0 9.70218 0Z" fill="#4680C2"/>
<path fill-rule="evenodd" clip-rule="evenodd" d="M22.8858 8.93763C23.0241 8.50293 22.8858 8.18677 22.2732 8.18677H20.2379C19.7242 8.18677 19.487 8.46338 19.3487 8.75983C19.3487 8.75983 18.3014 11.2891 16.8392 12.9292C16.3649 13.4034 16.1476 13.5615 15.8907 13.5615C15.7524 13.5615 15.5746 13.4034 15.5746 12.9687V8.91786C15.5746 8.40412 15.4165 8.16699 14.9817 8.16699H11.7806C11.4645 8.16699 11.2669 8.40412 11.2669 8.64124C11.2669 9.13527 11.998 9.2538 12.077 10.637V13.6405C12.077 14.2926 11.9585 14.4112 11.7016 14.4112C11.01 14.4112 9.33039 11.8621 8.32262 8.95741C8.12499 8.38434 7.92741 8.16699 7.41367 8.16699H5.35859C4.7658 8.16699 4.66699 8.44367 4.66699 8.74006C4.66699 9.27358 5.35859 11.9609 7.88786 15.5178C9.56751 17.9482 11.9585 19.2524 14.1123 19.2524C15.4165 19.2524 15.5746 18.956 15.5746 18.462V16.6243C15.5746 16.0315 15.6931 15.9327 16.1081 15.9327C16.4045 15.9327 16.938 16.0908 18.1433 17.2566C19.5265 18.6398 19.7637 19.2721 20.5343 19.2721H22.5696C23.1624 19.2721 23.4391 18.9757 23.281 18.4027C23.1031 17.8297 22.4313 16.9998 21.5618 16.0117C21.0876 15.4585 20.3762 14.8459 20.1589 14.5495C19.8625 14.1543 19.9415 13.9962 20.1589 13.6405C20.1391 13.6405 22.6289 10.1233 22.8858 8.93763Z" fill="white"/>
</svg>
