<svg width="424" height="269" viewBox="0 0 424 269" fill="none" xmlns="http://www.w3.org/2000/svg">
<g filter="url(#filter0_d_675_14111)">
<path d="M450.547 -207.048C442.065 -196.756 430.709 -167.783 453.146 -134.223C481.193 -92.2726 530.296 -85.566 563.471 -50.151C587.957 -24.0121 633.423 51.2822 616.338 105.333" stroke="white" stroke-width="1.73682"/>
<path d="M439.606 -190.167C431.123 -179.875 419.767 -150.902 442.205 -117.342C470.252 -75.3917 519.355 -68.6852 552.53 -33.2702C577.016 -7.13125 622.481 68.163 605.396 122.213" stroke="white" stroke-width="1.73682"/>
<path d="M428.176 -173.612C419.694 -163.32 408.338 -134.347 430.775 -100.787C458.822 -58.837 507.925 -52.1305 541.1 -16.7155C565.586 9.42343 611.051 84.7177 593.967 138.768" stroke="white" stroke-width="1.73682"/>
<path d="M416.215 -157.432C407.733 -147.141 396.377 -118.167 418.814 -84.6074C446.861 -42.6573 495.964 -35.9508 529.139 -0.535787C553.625 25.6031 599.091 100.897 582.006 154.948" stroke="white" stroke-width="1.73682"/>
<path d="M403.682 -141.69C395.2 -131.399 383.844 -102.425 406.281 -68.8652C434.328 -26.9151 483.431 -20.2086 516.606 15.2064C541.092 41.3453 586.557 116.64 569.473 170.69" stroke="white" stroke-width="1.73682"/>
<path d="M390.52 -126.468C382.037 -116.177 370.682 -87.2035 393.119 -53.6435C421.166 -11.6935 470.269 -4.98691 503.444 30.4281C527.93 56.567 573.395 131.861 556.31 185.912" stroke="white" stroke-width="1.73682"/>
<path d="M376.665 -111.872C368.182 -101.58 356.826 -72.6068 379.263 -39.0468C407.31 2.90321 456.413 9.60977 489.589 45.0248C514.075 71.1637 559.54 146.458 542.455 200.508" stroke="white" stroke-width="1.73682"/>
<path d="M362.04 -98.0408C353.557 -87.7491 342.201 -58.7758 364.638 -25.2158C392.685 16.7343 441.788 23.4408 474.964 58.8558C499.45 84.9947 544.915 160.289 527.83 214.339" stroke="white" stroke-width="1.73682"/>
<path d="M346.569 -85.1638C338.086 -74.8721 326.73 -45.8988 349.168 -12.3388C377.214 29.6112 426.317 36.3178 459.493 71.7328C483.979 97.8717 529.444 173.166 512.359 227.216" stroke="white" stroke-width="1.73682"/>
<path d="M330.171 -73.4861C321.688 -63.1944 310.332 -34.2211 332.769 -0.661076C360.816 41.289 409.919 47.9955 443.094 83.4105C467.58 109.549 513.046 184.844 495.961 238.894" stroke="white" stroke-width="1.73682"/>
<path d="M312.788 -63.3357C304.305 -53.044 292.949 -24.0707 315.386 9.48931C343.433 51.4393 392.536 58.1459 425.712 93.5609C450.198 119.7 495.663 194.994 478.578 249.044" stroke="white" stroke-width="1.73682"/>
<path d="M294.409 -55.1277C285.926 -44.836 274.57 -15.8627 297.008 17.6973C325.054 59.6474 374.157 66.3539 407.333 101.769C431.819 127.908 477.284 203.202 460.199 257.252" stroke="white" stroke-width="1.73682"/>
<path d="M275.13 -49.3484C266.647 -39.0567 255.291 -10.0834 277.728 23.4766C305.775 65.4267 354.878 72.1332 388.053 107.548C412.539 133.687 458.005 208.981 440.92 263.032" stroke="white" stroke-width="1.73682"/>
<path d="M251.631 -45.9284C243.149 -35.6368 231.793 -6.66349 254.23 26.8965C282.277 68.8466 331.38 75.5531 364.555 110.968C389.041 137.107 434.507 212.401 417.422 266.452" stroke="white" stroke-width="1.73682"/>
<path d="M231.805 -42.5007C223.323 -32.2091 211.967 -3.23575 234.404 30.3243C262.451 72.2743 311.554 78.9809 344.729 114.396C369.215 140.535 414.68 215.829 397.596 269.879" stroke="white" stroke-width="1.73682"/>
<path d="M212.325 -37.4509C203.842 -27.1593 192.486 1.81405 214.924 35.3741C242.97 77.3241 292.073 84.0307 325.249 119.446C349.735 145.585 395.2 220.879 378.115 274.929" stroke="white" stroke-width="1.73682"/>
<path d="M193.323 -30.8161C184.84 -20.5245 173.484 8.44882 195.922 42.0088C223.968 83.9589 273.071 90.6654 306.247 126.08C330.733 152.219 376.198 227.514 359.113 281.564" stroke="white" stroke-width="1.73682"/>
<path d="M174.915 -22.6716C166.432 -12.38 155.076 16.5934 177.513 50.1534C205.56 92.1034 254.663 98.81 287.839 134.225C312.325 160.364 357.79 235.658 340.705 289.708" stroke="white" stroke-width="1.73682"/>
<path d="M157.196 -13.1159C148.713 -2.8243 137.357 26.149 159.795 59.709C187.841 101.659 236.944 108.366 270.12 143.781C294.606 169.92 340.071 245.214 322.986 299.264" stroke="white" stroke-width="1.73682"/>
<path d="M140.241 -2.26634C131.758 8.02531 120.402 36.9986 142.84 70.5587C170.886 112.509 219.989 119.215 253.165 154.63C277.651 180.769 323.116 256.063 306.031 310.114" stroke="white" stroke-width="1.73682"/>
<path d="M124.094 9.75515C115.612 20.0468 104.256 49.0201 126.693 82.5801C154.74 124.53 203.843 131.237 237.018 166.652C261.504 192.791 306.969 268.085 289.885 322.135" stroke="white" stroke-width="1.73682"/>
<path d="M108.784 22.8255C100.301 33.1171 88.9452 62.0904 111.383 95.6504C139.429 137.6 188.532 144.307 221.708 179.722C246.194 205.861 291.659 281.155 274.574 335.206" stroke="white" stroke-width="1.73682"/>
<path d="M94.3307 36.8313C85.848 47.123 74.4921 76.0963 96.9294 109.656C124.976 151.606 174.079 158.313 207.255 193.728C231.741 219.867 277.206 295.161 260.121 349.211" stroke="white" stroke-width="1.73682"/>
<path d="M80.7389 51.6741C72.2562 61.9657 60.9003 90.9391 83.3376 124.499C111.384 166.449 160.487 173.156 193.663 208.571C218.149 234.71 263.614 310.004 246.529 364.054" stroke="white" stroke-width="1.73682"/>
<path d="M68.024 67.2639C59.5414 77.5556 48.1854 106.529 70.6228 140.089C98.6695 182.039 147.772 188.746 180.948 224.161C205.434 250.299 250.899 325.594 233.814 379.644" stroke="white" stroke-width="1.73682"/>
</g>
<defs>
<filter id="filter0_d_675_14111" x="43.2387" y="-287.179" width="630.376" height="684.486" filterUnits="userSpaceOnUse" color-interpolation-filters="sRGB">
<feFlood flood-opacity="0" result="BackgroundImageFix"/>
<feColorMatrix in="SourceAlpha" type="matrix" values="0 0 0 0 0 0 0 0 0 0 0 0 0 0 0 0 0 0 127 0" result="hardAlpha"/>
<feOffset dy="4"/>
<feGaussianBlur stdDeviation="6.7"/>
<feComposite in2="hardAlpha" operator="out"/>
<feColorMatrix type="matrix" values="0 0 0 0 0.975081 0 0 0 0 0.975081 0 0 0 0 0.975081 0 0 0 0.4 0"/>
<feBlend mode="normal" in2="BackgroundImageFix" result="effect1_dropShadow_675_14111"/>
<feBlend mode="normal" in="SourceGraphic" in2="effect1_dropShadow_675_14111" result="shape"/>
</filter>
</defs>
</svg>
